<svg xmlns="http://www.w3.org/2000/svg" xmlns:xlink="http://www.w3.org/1999/xlink" width="600" height="600"><defs><linearGradient id="b"><stop offset="0" stop-color="#a7d9d9"/><stop offset=".934" stop-color="#a7d9d9"/><stop offset=".934" stop-color="#b3dddd"/><stop offset="1" stop-color="#b3dddd"/></linearGradient><linearGradient id="a"><stop offset="0" stop-color="#b4b4b4"/><stop offset="1" stop-color="#b4b4b4" stop-opacity="0"/></linearGradient><linearGradient xlink:href="#a" id="d" x1="457.348" y1="1034.189" x2="501.392" y2="1095.778" gradientUnits="userSpaceOnUse"/><radialGradient xlink:href="#b" id="c" cx="444.208" cy="816.644" fx="444.208" fy="816.644" r="119.729" gradientTransform="matrix(1.35142 -.46957 .51238 1.47464 -579.797 -182.794)" gradientUnits="userSpaceOnUse"/></defs><g transform="translate(0 -522.52)"><path d="M283.407 730.827s-6.819-37.558-45.668-75.257c-38.85-37.698-136.272-18.9-133.74-.744 2.53 18.157 6.298 8.502 7.079 18.198.78 9.696-5.129 5.872-3.697 19.923 1.433 14.05 8.791 8.69 11.405 17.326 2.613 8.636-4.977 7.866-.223 20.847 4.754 12.98 7.662 3.91 11.57 11.733 3.91 7.824-5.708 4.76-.9 19.082 4.808 14.322 7.509 4.85 10.795 13.714 4.073 10.424 143.38-44.822 143.38-44.822z" fill="#9cd4d4" fill-rule="evenodd"/><path d="M288.864 708.88s11.611-33.809 67.273-68.042c55.662-34.234 175.949 5.959 172.017 18.953-3.931 12.994-9.065 7.52-11.171 17.037-2.107 9.518 5.3 9.625 2.484 20.338-2.815 10.713-12.29 7.338-16.632 15.534-4.342 8.196 3.988 11.453-2.086 20.745-6.074 9.292-10.295 2.755-16.21 9.953-5.915 7.198 4.744 10.57-1.014 19.09-5.757 8.521-10.205 3.713-15.438 12.036-5.233 8.323 2.465 12.358-5.105 20.792-7.571 8.434-12.997 5.644-19.528 12.86-6.531 7.217-.598 12.349-11.233 19.772-10.634 7.423-20.398.023-30.394 3.043-9.996 3.02-8.606 10.122-21.22 14.039-12.613 3.917-25.865-6.984-25.865-6.984z" fill="url(#c)" fill-rule="evenodd"/><path d="M252.946 621.18c3.71 6.72-11.33 8.259-11.33 8.259s26.455 16.884 26.598 22.277c.144 5.393-20.214-3.196-20.214-3.196s16.069 38.483 33.792 47.473c54.775 27.783 124.495 300.468 190.96 419.456 0 0-108.142-141.182-153.039-176.02-44.896-34.837-142.557-42.59-172.951-116.705-30.395-74.115 11.273-102.814 11.431-121.272.159-18.458-20.77-30.145-23.193-35.932-2.423-5.788-18.322-35.255-1.19-52.43 62.469-62.622 115.427 1.37 119.136 8.09z" fill="#c9e7e6" fill-rule="evenodd"/><path d="M144.657 658.01c-28.171-1.964-19.978 11.176-21.67 17.707-1.712-1.173-35.71-37.571 10.763-62.84 10.374 7.587 16.524 31.96 10.907 45.134z" fill="#6f8a91" fill-rule="evenodd"/><ellipse transform="matrix(.99995 -.0104 .03858 .99926 0 0)" cx="217.995" cy="929.236" rx="5.772" ry="11.868" fill="#2d2d2d" fill-rule="evenodd" paint-order="markers stroke fill"/><ellipse ry="11.836" rx="5.772" cy="935.557" cx="263.997" transform="matrix(.99995 -.01038 .03869 .99925 0 0)" fill="#2d2d2d" fill-rule="evenodd" paint-order="markers stroke fill"/><path d="M199.91 946.984s31.441-20.842 40.804-22.321c25.845-4.084 53.547.323 77.857 10 61.593 24.514 110.719 73.61 160.715 117.142 28.954 25.211 80 82.857 80 82.857" fill="none" stroke="url(#d)" stroke-width="15.118" stroke-linejoin="round"/><ellipse cx="368.882" cy="890.907" rx="6.71" ry="21.361" transform="matrix(.99355 .1134 -.13357 .99104 0 0)" fill="#484848" fill-rule="evenodd" paint-order="markers stroke fill"/><ellipse ry="20.991" rx="6.905" cy="937.614" cx="195.025" transform="matrix(.99826 -.05888 .06956 .99758 0 0)" fill="#484848" fill-rule="evenodd" paint-order="markers stroke fill"/><ellipse transform="matrix(.99528 .09705 -.11728 .9931 0 0)" ry="19.948" rx="6.266" cy="896.475" cx="401.274" fill="#484848" fill-rule="evenodd" paint-order="markers stroke fill"/><ellipse transform="matrix(.99988 -.0154 .0261 .99966 0 0)" cx="281.802" cy="934.386" rx="6.448" ry="19.603" fill="#484848" fill-rule="evenodd" paint-order="markers stroke fill"/><path d="M195.985 938.808l10.354 14.584-5.303 3.093 1.325 2.589-15.657 8.144-10.922-19.066 14.016-8.712 1.567 1.868z" fill="#f3f3f3" fill-rule="evenodd"/><path d="M178.377 950.69l7.245-4.724.414.792-7.168 4.763zM179.403 952.476l7.246-4.724.414.792-7.168 4.762zM180.274 954.06l7.245-4.723.414.792-7.168 4.762zM181.278 955.713l7.246-4.725.414.792-7.168 4.763zM182.238 957.588l7.245-4.725.415.792-7.168 4.763zM183.354 959.329l7.245-4.725.415.793-7.168 4.762zM184.381 961.315l7.245-4.724.414.792-7.168 4.763zM185.452 963.012l7.246-4.725.414.793-7.168 4.762z" fill="#decd87" fill-rule="evenodd"/><circle cx="176.98" cy="627.175" r="12" fill-rule="evenodd" paint-order="markers stroke fill"/><circle cy="623.053" cx="180.786" r="4" fill="#fff" fill-rule="evenodd" paint-order="markers stroke fill"/></g></svg>