<?xml version="1.0" encoding="UTF-8" standalone="no"?>
<svg
   width="600"
   height="400"
   version="1.1"
   id="svg52"
   sodipodi:docname="parrot.svg"
   inkscape:version="1.1 (c68e22c387, 2021-05-23)"
   xmlns:inkscape="http://www.inkscape.org/namespaces/inkscape"
   xmlns:sodipodi="http://sodipodi.sourceforge.net/DTD/sodipodi-0.dtd"
   xmlns:xlink="http://www.w3.org/1999/xlink"
   xmlns="http://www.w3.org/2000/svg"
   xmlns:svg="http://www.w3.org/2000/svg"
   xmlns:rdf="http://www.w3.org/1999/02/22-rdf-syntax-ns#"
   xmlns:cc="http://creativecommons.org/ns#"
   xmlns:dc="http://purl.org/dc/elements/1.1/">
  <metadata
     id="metadata56">
    <rdf:RDF>
      <cc:Work
         rdf:about="">
        <dc:format>image/svg+xml</dc:format>
        <dc:type
           rdf:resource="http://purl.org/dc/dcmitype/StillImage" />
      </cc:Work>
    </rdf:RDF>
  </metadata>
  <sodipodi:namedview
     pagecolor="#4e4e4e"
     bordercolor="#666666"
     borderopacity="1"
     objecttolerance="10"
     gridtolerance="10"
     guidetolerance="10"
     inkscape:pageopacity="0"
     inkscape:pageshadow="2"
     inkscape:window-width="1827"
     inkscape:window-height="1057"
     id="namedview54"
     showgrid="true"
     inkscape:zoom="1.5733333"
     inkscape:cx="226.90678"
     inkscape:cy="228.49577"
     inkscape:window-x="85"
     inkscape:window-y="-8"
     inkscape:window-maximized="1"
     inkscape:current-layer="svg52"
     inkscape:pagecheckerboard="0"
     height="400px">
    <inkscape:grid
       type="xygrid"
       id="grid957" />
  </sodipodi:namedview>
  <defs
     id="defs18">
    <linearGradient
       id="linearGradient1023">
      <stop
         id="stop1015"
         stop-color="#a7d9d9"
         offset="0"
         style="stop-color:#7dc7c7;stop-opacity:1" />
      <stop
         id="stop1017"
         stop-color="#a7d9d9"
         offset=".934"
         style="stop-color:#7dc7c7;stop-opacity:1" />
      <stop
         id="stop1019"
         stop-color="#b3dddd"
         offset="0.93400002"
         style="stop-color:#97d1d1;stop-opacity:1" />
      <stop
         id="stop1021"
         stop-color="#b3dddd"
         offset="1"
         style="stop-color:#97d1d1;stop-opacity:1" />
    </linearGradient>
    <linearGradient
       inkscape:collect="always"
       id="linearGradient991">
      <stop
         style="stop-color:#dceeed;stop-opacity:1"
         offset="0"
         id="stop987" />
      <stop
         id="stop997"
         offset="1"
         style="stop-color:#dceeed;stop-opacity:1" />
      <stop
         style="stop-color:#c9e7e6;stop-opacity:1"
         offset="1"
         id="stop989" />
    </linearGradient>
    <linearGradient
       id="b">
      <stop
         offset="0"
         stop-color="#a7d9d9"
         id="stop2" />
      <stop
         offset=".934"
         stop-color="#a7d9d9"
         id="stop4" />
      <stop
         offset=".934"
         stop-color="#b3dddd"
         id="stop6" />
      <stop
         offset="1"
         stop-color="#b3dddd"
         id="stop8" />
    </linearGradient>
    <linearGradient
       id="a">
      <stop
         offset="0"
         stop-color="#b4b4b4"
         id="stop11" />
      <stop
         offset="1"
         stop-color="#b4b4b4"
         stop-opacity="0"
         id="stop13" />
    </linearGradient>
    <linearGradient
       xlink:href="#a"
       id="d"
       x1="427.08493"
       y1="1026.2698"
       x2="535.26965"
       y2="1120.4968"
       gradientUnits="userSpaceOnUse"
       gradientTransform="translate(1.23594,-525.55367)" />
    <radialGradient
       xlink:href="#b"
       id="c"
       cx="442.67523"
       cy="815.72485"
       fx="442.67523"
       fy="815.72485"
       r="119.729"
       gradientTransform="matrix(1.35142,-0.46957,0.51238,1.47464,-579.797,-705.314)"
       gradientUnits="userSpaceOnUse" />
    <radialGradient
       inkscape:collect="always"
       xlink:href="#linearGradient991"
       id="radialGradient995"
       cx="176.80005"
       cy="315.01428"
       fx="176.80005"
       fy="315.01428"
       r="171.45403"
       gradientTransform="matrix(0.41502431,-0.15757981,0.33450844,0.88100838,-6.38767,63.968566)"
       gradientUnits="userSpaceOnUse" />
    <radialGradient
       inkscape:collect="always"
       xlink:href="#linearGradient1023"
       id="radialGradient1003"
       gradientUnits="userSpaceOnUse"
       gradientTransform="matrix(0.82655202,-0.75916926,0.58109889,0.85954668,-456.72811,-137.38324)"
       cx="444.40109"
       cy="800.09875"
       fx="444.40109"
       fy="800.09875"
       r="119.729" />
  </defs>
  <path
     d="m 275.58853,137.88261 c 0,0 -0.3773,-17.97233 16.71706,-44.912716 17.09421,-26.940844 70.91698,-32.275663 71.27316,-25.473901 0.35658,6.801569 -2.49638,5.288325 -1.92747,10.115946 0.56864,4.828285 3.5328,3.402931 3.99593,8.925907 0.46353,5.52279 -3.80699,5.846202 -4.32344,10.507188 -0.51646,4.660976 3.28085,4.510906 2.23704,10.024436 -1.04382,5.51352 -3.69054,3.3261 -4.98068,7.83803 -1.29014,4.51193 3.45121,3.95136 2.41904,9.04438 -1.03164,5.09328 -3.51306,3.75192 -4.3654,8.64915 -0.85233,4.89722 2.80844,5.23337 1.04229,10.64736 -1.76656,5.41419 -4.33889,5.20232 -5.87157,9.84526 -1.53253,4.64338 1.5879,5.83912 -1.54776,11.39513 -3.13525,5.55582 -8.11596,4.0724 -11.64828,7.46172 -3.53234,3.38932 -1.92894,6.40218 -6.37073,10.72829 -4.4414,4.32591 -11.32814,1.91539 -11.32814,1.91539 z"
     id="path999"
     style="fill:url(#radialGradient1003);fill-rule:evenodd;stroke-width:0.77067"
     inkscape:connector-curvature="0" />
  <path
     inkscape:connector-curvature="0"
     style="fill:url(#c);fill-rule:evenodd;stroke-width:1"
     id="path22"
     d="m 293.3184,131.816 c 0,0 6.9666,-20.2854 40.3638,-40.8252 33.3972,-20.5404 105.5694,3.5754 103.2102,11.3718 -2.3586,7.7964 -5.439,4.512 -6.7026,10.2222 -1.2642,5.7108 3.18,5.775 1.4904,12.2028 -1.689,6.4278 -7.374,4.4028 -9.9792,9.3204 -2.6052,4.9176 2.3928,6.8718 -1.2516,12.447 -3.6444,5.5752 -6.177,1.653 -9.726,5.9718 -3.549,4.3188 2.8464,6.342 -0.6084,11.454 -3.4542,5.1126 -6.123,2.2278 -9.2628,7.2216 -3.1398,4.9938 1.479,7.4148 -3.063,12.4752 -4.5426,5.0604 -7.7982,3.3864 -11.7168,7.716 -3.9186,4.3302 -0.3588,7.4094 -6.7398,11.8632 -6.3804,4.4538 -12.2388,0.0138 -18.2364,1.8258 -5.9976,1.812 -5.1636,6.0732 -12.732,8.4234 -7.5678,2.3502 -15.519,-4.1904 -15.519,-4.1904 z" />
  <path
     style="fill:url(#radialGradient995);fill-opacity:1;fill-rule:evenodd;stroke:none;stroke-width:1px;stroke-linecap:butt;stroke-linejoin:miter;stroke-opacity:1"
     d="m 197.98729,94.745762 c -0.52231,-13.007526 8.05521,-36.607447 37.23624,-36.52556 17.26434,0.04844 38.01006,18.301863 36.93171,23.099366 -0.50231,2.234712 -7.49318,2.275992 -7.08457,2.786526 1.46265,1.827498 16.95269,10.17096 15.85405,13.920876 C 280.04307,101.03628 268.54314,94.421888 268.8,95.6 c 0.73107,3.353076 11.68788,24.2239 24.39226,31.24859 15.29342,8.45627 41.60038,73.16945 52.37977,106.52006 22.05974,68.25112 59.82877,143.71905 58.07917,142.38875 -6.74978,-5.13218 -56.21676,-80.02015 -95.26137,-108.54342 C 294.26414,256.89474 277.62525,251.2657 261.29237,245 215.61481,227.47693 202.33242,198.71448 201.3772,168.49782 c -0.69042,-21.83982 14.15558,-29.22599 12.86875,-45.88769 -0.51174,-6.62595 -15.65658,-12.87002 -16.25866,-27.864368 z"
     id="path947"
     inkscape:connector-curvature="0"
     sodipodi:nodetypes="ssssssssssssss" />
  <path
     style="fill:#6f8a91;fill-rule:evenodd;stroke:none;stroke-width:1"
     inkscape:connector-curvature="0"
     id="path26"
     d="m 192.21911,111.53685 c 0.32667,1.90187 -22.22762,-21.55873 9.85109,-34.288982 6.18317,4.535704 0.42708,22.820932 -2.98367,23.449382 -0.97363,0.1794 -9.14439,-2.41675 -6.86742,10.8396 z"
     sodipodi:nodetypes="scss" />
  <ellipse
     style="fill:#484848;fill-opacity:1;fill-rule:evenodd;stroke-width:1;paint-order:markers stroke fill"
     id="ellipse28"
     ry="7.120832"
     rx="3.4632139"
     cy="261.00336"
     cx="266.58691"
     transform="matrix(0.99994592,-0.01039997,0.03857983,0.99925552,0,0)" />
  <ellipse
     style="fill:#484848;fill-opacity:1;fill-rule:evenodd;stroke-width:1;paint-order:markers stroke fill"
     id="ellipse30"
     transform="matrix(0.99869285,0.05111353,-0.02281428,0.99973972,0,0)"
     cx="306.8204"
     cy="248.28714"
     rx="3.4632134"
     ry="7.1015911" />
  <path
     inkscape:connector-curvature="0"
     style="fill:none;stroke:url(#d);stroke-width:15.118;stroke-linejoin:round"
     id="path32"
     d="m 240.68756,272.8582 c 0,0 18.79719,-15.47146 26.30261,-16.5611 15.507,-2.4504 30.30799,3.3623 44.89399,9.1685 36.9558,14.7084 66.4314,44.166 96.429,70.2852 17.3724,15.1266 48,49.7142 48,49.7142"
     sodipodi:nodetypes="ccccc" />
  <ellipse
     style="fill:#626262;fill-opacity:1;fill-rule:evenodd;stroke-width:1;paint-order:markers stroke fill"
     id="ellipse34"
     transform="matrix(0.99354942,0.11339993,-0.13356992,0.99103939,0,0)"
     ry="12.816607"
     rx="4.0260024"
     cy="225.76102"
     cx="304.96619" />
  <ellipse
     style="fill:#626262;fill-opacity:1;fill-rule:evenodd;stroke-width:0.999996;paint-order:markers stroke fill"
     id="ellipse36"
     transform="matrix(0.99826505,-0.0588803,0.06955985,0.99757778,0,0)"
     cx="261.68982"
     cy="273.85666"
     rx="4.1429791"
     ry="12.594627" />
  <ellipse
     style="fill:#626262;fill-opacity:1;fill-rule:evenodd;stroke-width:1;paint-order:markers stroke fill"
     id="ellipse38"
     cx="339.41962"
     cy="212.91588"
     rx="3.7596016"
     ry="11.968814"
     transform="matrix(0.98743057,0.15805337,-0.17811097,0.98401041,0,0)" />
  <ellipse
     style="fill:#626262;fill-opacity:1;fill-rule:evenodd;stroke-width:1;paint-order:markers stroke fill"
     id="ellipse40"
     ry="11.761808"
     rx="3.8687947"
     cy="249.59775"
     cx="313.51791"
     transform="matrix(0.99893688,0.046099,-0.03540563,0.99937302,0,0)" />
  <circle
     style="fill:#6f8a91;fill-opacity:1;fill-rule:evenodd;stroke-width:1;paint-order:markers stroke fill"
     id="circle46"
     r="7.1999998"
     cy="82.792999"
     cx="226.188" />
  <ellipse
     style="fill:#ffffff;fill-rule:evenodd;stroke-width:0.866022;paint-order:markers stroke fill"
     id="circle48"
     cx="228.4716"
     cy="79.719788"
     rx="2.4000001"
     ry="1.8" />
  <g
     id="g985"
     transform="matrix(0.58897686,-0.47546106,0.47546106,0.58897686,-102.01915,121.76918)"
     style="stroke-width:1.66667">
    <rect
       y="428.59088"
       x="206.14366"
       height="22.998112"
       width="16.769476"
       id="rect949"
       style="opacity:1;fill:#dfdfdf;fill-opacity:1;fill-rule:evenodd;stroke:none;stroke-width:10;stroke-linecap:butt;stroke-linejoin:miter;stroke-miterlimit:4;stroke-dasharray:none;stroke-dashoffset:0;stroke-opacity:1;paint-order:markers fill stroke" />
    <path
       inkscape:connector-curvature="0"
       id="path955"
       d="m 221.99172,430.81684 5.92689,1.12358 v 16.17956 l -5.39846,1.44651 z"
       style="fill:#dfdfdf;fill-opacity:1;fill-rule:evenodd;stroke:none;stroke-width:1.66667px;stroke-linecap:butt;stroke-linejoin:miter;stroke-opacity:1" />
    <rect
       y="432.12375"
       x="206.14897"
       height="16.179569"
       width="8.6515675"
       id="rect959"
       style="opacity:1;fill:#d4d4d4;fill-opacity:1;fill-rule:evenodd;stroke:none;stroke-width:10;stroke-linecap:butt;stroke-linejoin:miter;stroke-miterlimit:4;stroke-dasharray:none;stroke-dashoffset:0;stroke-opacity:1;paint-order:markers fill stroke" />
    <path
       inkscape:connector-curvature="0"
       id="path961"
       d="m 207.1438,434.24921 h 5.72034"
       style="fill:none;fill-rule:evenodd;stroke:#79692b;stroke-width:1.66667px;stroke-linecap:butt;stroke-linejoin:miter;stroke-opacity:1" />
    <path
       style="fill:none;fill-rule:evenodd;stroke:#79692b;stroke-width:1.66667px;stroke-linecap:butt;stroke-linejoin:miter;stroke-opacity:1"
       d="m 207.1438,436.24921 h 5.72034"
       id="path963"
       inkscape:connector-curvature="0" />
    <path
       inkscape:connector-curvature="0"
       id="path965"
       d="m 207.1438,438.24921 h 5.72034"
       style="fill:none;fill-rule:evenodd;stroke:#79692b;stroke-width:1.66667px;stroke-linecap:butt;stroke-linejoin:miter;stroke-opacity:1" />
    <path
       style="fill:none;fill-rule:evenodd;stroke:#79692b;stroke-width:1.66667px;stroke-linecap:butt;stroke-linejoin:miter;stroke-opacity:1"
       d="m 207.1438,440.24921 h 5.72034"
       id="path967"
       inkscape:connector-curvature="0" />
    <path
       inkscape:connector-curvature="0"
       id="path969"
       d="m 207.1438,442.24921 h 5.72034"
       style="fill:none;fill-rule:evenodd;stroke:#79692b;stroke-width:1.66667px;stroke-linecap:butt;stroke-linejoin:miter;stroke-opacity:1" />
    <path
       style="fill:none;fill-rule:evenodd;stroke:#79692b;stroke-width:1.66667px;stroke-linecap:butt;stroke-linejoin:miter;stroke-opacity:1"
       d="m 207.1438,444.24921 h 5.72034"
       id="path971"
       inkscape:connector-curvature="0" />
    <path
       inkscape:connector-curvature="0"
       id="path973"
       d="m 207.1438,446.24921 h 5.72034"
       style="fill:none;fill-rule:evenodd;stroke:#79692b;stroke-width:1.66667px;stroke-linecap:butt;stroke-linejoin:miter;stroke-opacity:1" />
  </g>
</svg>
